<svg xmlns="http://www.w3.org/2000/svg" width="32" height="32" fill="none" viewBox="0 0 32 32">
	<circle cx="16" cy="10" r="5" stroke="#999CA0" stroke-width="2" />
	<path stroke="#999CA0" stroke-linecap="round" stroke-linejoin="round" stroke-width="2"
		d="M20.823 15.941h-9.882C8.212 15.941 6 17.065 6 18.451v2.51c0 1.386 2.212 2.51 4.941 2.51h9.882c2.73 0 4.942-1.124 4.942-2.51v-2.51c0-1.386-2.213-2.51-4.942-2.51z" />
	<path stroke="#999CA0" stroke-linecap="round" stroke-linejoin="round" stroke-width="2"
		d="M25.765 20.647v5.02c0 1.386-2.213 2.51-4.942 2.51h-9.882C8.212 28.177 6 27.053 6 25.666v-5.02" />
	<path fill="#999CA0" d="M13 15h6v4a2 2 0 01-2 2h-2a2 2 0 01-2-2v-4zM16 12a2 2 0 100-4 2 2 0 000 4z" />
</svg>
