<svg xmlns="http://www.w3.org/2000/svg" width="32" height="32" fill="none" viewBox="0 0 32 32">
  <path stroke="#999CA0" stroke-linecap="round" stroke-linejoin="round" stroke-width="2" d="M23.058 4H8.998c-1.11 0-2.009.199-2.009.444v3.112c0 .245.9.444 2.009.444h14.06c1.109 0 2.008-.199 2.008-.444V4.444c0-.245-.9-.444-2.008-.444z"/>
  <path fill="#999CA0" d="M20.045 19c.554 0 1.004-.448 1.004-1s-.45-1-1.004-1c-.555 0-1.005.448-1.005 1s.45 1 1.005 1zM12.01 19c.555 0 1.005-.448 1.005-1s-.45-1-1.004-1c-.555 0-1.005.448-1.005 1s.45 1 1.005 1zM13.015 21a2.988 2.988 0 00.882 2.121 3.012 3.012 0 002.13.879 3.024 3.024 0 002.131-.879A2.999 2.999 0 0019.041 21h-6.026z"/>
  <path stroke="#999CA0" stroke-width="1.75" d="M7.993 7.5L4.82 11.601M24.062 7.39l3.128 4.163"/>
  <path fill="#999CA0" fill-rule="evenodd" d="M5.33 10.995c-.333-.294-.863-.322-1.157.012a.692.692 0 00.064.98L5.49 13.08a.881.881 0 001.24-.08l.101-.115a.72.72 0 00-.066-1.02.802.802 0 00-.237-.14 4.02 4.02 0 01-1.196-.73zM25.683 11.661a1.014 1.014 0 00-.328.225.88.88 0 00.028 1.243.881.881 0 001.242-.034l1.196-1.258a.65.65 0 00-.026-.922c-.283-.267-.735-.225-1.022.037-.32.291-.688.532-1.09.709z" clip-rule="evenodd"/>
  <path fill="#999CA0" fill-rule="evenodd" d="M21.07 11c.043.258.16.5.481.5 0-.098.058-.185.15-.264a4.01 4.01 0 002.36.764c.637 0 1.24-.147 1.774-.41.726.477 1.24 1.227 1.24 2.188v12.444c0 1.731-1.67 2.778-3.236 2.778H8.217C6.65 29 4.98 27.953 4.98 26.222V13.778c0-.96.514-1.71 1.24-2.188.534.263 1.136.41 1.773.41a4.01 4.01 0 002.36-.764.69.69 0 01.022.02c.08.074.128.154.128.244.321 0 .439-.242.48-.5h2.052c.042.258.16.5.481.5 0-.098.057-.185.15-.264a4.01 4.01 0 002.36.764 4.01 4.01 0 002.362-.764c.092.08.15.166.15.264.32 0 .438-.242.48-.5h2.051zM8.217 13c-.899 0-1.228.545-1.228.778v12.444c0 .233.33.778 1.228.778h15.622c.898 0 1.227-.545 1.227-.778V13.778c0-.233-.329-.778-1.227-.778H8.217z" clip-rule="evenodd"/>
  <path fill="#999CA0" d="M11.006 13c.555 0 1.005-.448 1.005-1s-.45-1-1.005-1c-.554 0-1.004.448-1.004 1s.45 1 1.004 1z"/>
  <path fill="#999CA0" d="M13.015 13a1.002 1.002 0 01-1.005-1c0-.552.45-1 1.005-1 .554 0 1.004.448 1.004 1s-.45 1-1.004 1zM21.049 13a1.002 1.002 0 01-1.004-1c0-.552.45-1 1.004-1 .555 0 1.004.448 1.004 1s-.45 1-1.004 1zM19.04 13c.555 0 1.005-.448 1.005-1s-.45-1-1.005-1c-.554 0-1.004.448-1.004 1s.45 1 1.004 1z"/>
  <path fill="#999CA0" d="M11.006 13c.555 0 1.005-.448 1.005-1s-.45-1-1.005-1c-.554 0-1.004.448-1.004 1s.45 1 1.004 1zM26.07 13H5.985v1H26.07v-1z"/>
  <path fill="#999CA0" fill-rule="evenodd" d="M7.994 14c0-.552-.45-1-1.005-1-.555 0-1.004.448-1.004 1s.45 1 1.004 1c0-.552.45-1 1.005-1zM25.066 15c.555 0 1.004-.448 1.004-1s-.449-1-1.004-1c-.555 0-1.004.448-1.004 1 .555 0 1.004.448 1.004 1z" clip-rule="evenodd"/>
</svg>
