<?xml version="1.0" encoding="utf-8"?>
<!-- Generator: Adobe Illustrator 22.0.0, SVG Export Plug-In . SVG Version: 6.00 Build 0)  -->
<svg version="1.1" id="Слой_1" xmlns="http://www.w3.org/2000/svg" xmlns:xlink="http://www.w3.org/1999/xlink" x="0px" y="0px"
	 viewBox="0 0 27 17" style="enable-background:new 0 0 27 17;" xml:space="preserve">
<style type="text/css">
	.st0{fill:#FFFFFF;}
</style>
<g>
	<g>
		<path class="st0" d="M13.5,0c2.1,0,4.2,0,6.4,0C21,0,22,0.4,22.8,1.2C23.6,2,24,3,24.3,4.1c0.7,2.4,1.4,4.9,2.1,7.3
			c0.1,0.4,0.3,0.8,0.4,1.2c0.5,1.7-0.4,3.6-2.1,4.2c-1.8,0.7-3.6-0.1-4.5-1.7c-0.7-1.2-1.4-2.5-2.1-3.7c-0.1-0.1-0.2-0.2-0.3-0.2
			c-2.9,0-5.8,0-8.7,0c-0.2,0-0.3,0-0.3,0.2c-0.7,1.3-1.5,2.5-2.2,3.8c-0.8,1.4-2.4,2.1-3.9,1.8C1.1,16.5,0,15.2,0,13.5
			c0-0.6,0.2-1.1,0.4-1.7C1.2,9.1,2,6.3,2.8,3.5c0.5-1.5,1.4-2.7,3-3.3C6.3,0.1,6.8,0,7.3,0C9.4,0,11.5,0,13.5,0
			C13.5,0,13.5,0,13.5,0z M7.6,8.8c1.9,0,3.4-1.5,3.4-3.4c0-1.8-1.6-3.3-3.4-3.3c-1.9,0-3.4,1.5-3.3,3.4C4.2,7.3,5.8,8.8,7.6,8.8z
			 M19.5,2c-0.7,0-1.2,0.5-1.2,1.2c0,0.7,0.6,1.2,1.2,1.2c0.7,0,1.2-0.5,1.2-1.2C20.7,2.6,20.2,2.1,19.5,2z M18.1,5.8
			c0-0.6-0.6-1.2-1.2-1.2c-0.6,0-1.2,0.6-1.2,1.2c0,0.6,0.6,1.2,1.2,1.2C17.5,7,18.1,6.4,18.1,5.8z M20.9,5.8c0,0.7,0.5,1.2,1.2,1.2
			c0.6,0,1.2-0.6,1.2-1.2c0-0.6-0.5-1.2-1.2-1.2C21.5,4.6,20.9,5.2,20.9,5.8z M19.5,9.6c0.6,0,1.2-0.6,1.2-1.2
			c0-0.6-0.6-1.2-1.2-1.2c-0.6,0-1.2,0.6-1.2,1.2C18.3,9,18.9,9.6,19.5,9.6z"/>
		<path class="st0" d="M7.6,7.2c-0.9,0-1.7-0.8-1.7-1.7c0-0.9,0.8-1.7,1.7-1.7c0.9,0,1.7,0.8,1.7,1.7C9.3,6.5,8.5,7.2,7.6,7.2z"/>
	</g>
</g>
</svg>
