<svg xmlns="http://www.w3.org/2000/svg" width="88" height="18" fill="none" viewBox="0 0 88 18">
	<path fill="#fff"
		d="M0 7.123h5.1v10.185H0V7.123zm5.1 5.078l2.382-5.078h5.07l-2.542 5.078 3.226 5.107h-5.13L5.1 12.2zM13.765 7.123h9.72c.474 0 .91.121 1.307.364.407.233.727.553.96.96.241.398.362.834.362 1.31 0 .63-.193 1.202-.58 1.716-.388.514-.877.844-1.468.99.523.145.95.422 1.278.83.34.407.509.867.509 1.381v2.634h-4.867V14.15c0-.31-.058-.552-.175-.727a1.366 1.366 0 00-.464-.451 2.27 2.27 0 00-.654-.233 4.902 4.902 0 00-.712-.087l-.392-.015v4.67h-4.824V7.124zm5.332 4.67c.349 0 .668-.082.959-.247.3-.174.533-.407.697-.698.175-.3.262-.621.262-.96 0-.35-.087-.67-.262-.96a1.825 1.825 0 00-.697-.714 1.827 1.827 0 00-.959-.262h-.508v3.856l.508-.014zM26.871 7.123h4.737v10.185H26.87V7.123zM32.591 7.123h7.298l4.243 5.092V7.123h3.898v10.185h-6.44l-5.086-6.78v6.78h-3.913V7.123zM77.74 7.123h5.756L88 17.308h-3.978l-1.526-3.376H79.3l-1.308 3.376h-4.087L77.74 7.123zm4.35 5.922l-1.323-2.954-1.147 2.954h2.47zM61.384 12.137c0-1.717.421-2.993 1.264-3.827.542-.543 1.147-.902 1.816-1.077.668-.174 1.545-.261 2.63-.261h1.266c.954.005 1.723.078 2.31.218.62.136 1.128.431 1.525.887.33.379.586.84.77 1.382.194.534.305 1.058.334 1.572h-1.978a4.976 4.976 0 00-.32-1.339 2.92 2.92 0 00-.784-1.193c-.358-.34-.814-.509-1.366-.509-.513 0-.94.228-1.278.684-.29.398-.499.926-.625 1.586a9.583 9.583 0 00-.174 1.877c0 1.096.135 2.012.407 2.75.358.94.915 1.41 1.67 1.41v-4.03h4.446v4.977c-1.395 0-2.973.019-4.736.058l-1.468.014c-1.065 0-1.932-.101-2.6-.305a4.19 4.19 0 01-1.7-1.033c-.94-.941-1.41-2.221-1.41-3.841zM48.711 12.137c0-1.717.422-2.993 1.264-3.827.543-.543 1.148-.902 1.816-1.077.669-.174 1.545-.261 2.63-.261h1.267c.953.005 1.723.078 2.31.218.62.136 1.128.431 1.525.887.33.379.586.84.77 1.382.194.534.305 1.058.334 1.572h-1.978a4.976 4.976 0 00-.32-1.339 2.919 2.919 0 00-.785-1.193c-.358-.34-.813-.509-1.365-.509-.514 0-.94.228-1.279.684-.29.398-.498.926-.624 1.586a9.583 9.583 0 00-.175 1.877c0 1.096.136 2.012.407 2.75.358.94.915 1.41 1.67 1.41v-4.03h4.447v4.977c-1.395 0-2.974.019-4.737.058l-1.467.014c-1.066 0-1.932-.101-2.6-.305a4.19 4.19 0 01-1.7-1.033c-.94-.941-1.41-2.221-1.41-3.841z" />
	<ellipse cx="29.209" cy="2.88" fill="url(#paint0_radial)" rx="2.875" ry="2.88" />
	<defs>
		<radialGradient id="paint0_radial" cx="0" cy="0" r="1"
			gradientTransform="rotate(-134.619 16.762 -4.15) scale(5.92891 5.92881)" gradientUnits="userSpaceOnUse">
			<stop stop-color="#F9CE7B" />
			<stop offset=".488" stop-color="#FFD91C" />
			<stop offset="1" stop-color="#FEF5CB" />
		</radialGradient>
	</defs>
</svg>
