<svg xmlns="http://www.w3.org/2000/svg" width="128" height="110" fill="none" viewBox="0 0 128 110">
  <path fill="#fff" d="M87.5 0l-7.58 2.86C71.39 6.08 65.85 9.407 62.185 12.877c-3.666 3.465-5.401 7.277-6.293 10.152-.898 2.884-1.255 4.559-1.859 5.438-.54.768-1.465 1.693-4.44 2.572-.05-.037-.412-.265-.425-.284h-.142a19.6 19.6 0 00-7.438-2.86c-7.617-1.287-15.59 2.036-20.026 9.154l-.146.142a26.379 26.379 0 00-3.433 16.592c.234 1.858.7 3.753 1.433 5.58A20.726 20.726 0 002.822 69.66h-.141C-2.9 79.51.497 92.226 10.402 97.838h.147v.141c.517.252 6.614 3.47 15.732 6.294 9.117 2.824 21.883 5.58 37.761 5.58 15.879 0 28.626-2.646 37.762-5.438 9.031-2.769 14.107-5.488 15.879-6.578l.141-.141c9.764-5.671 13.055-18.149 7.438-27.752h.142a19.948 19.948 0 00-11.443-9.296c0-.019-.142.018-.142 0a20.215 20.215 0 00-9.584-12.304c.627-2 1.002-4.325 1.002-7.15 0-5.309-1.895-9.78-4.435-13.017-2.536-3.236-5.593-5.4-8.152-7.438-2.559-2.037-4.614-3.913-5.722-5.721-1.107-1.804-1.661-3.525-1.002-7.008L87.501 0zM77.203 14.592c.43 1.909 1.07 3.772 2.005 5.291 2.16 3.525 5.058 5.758 7.721 7.869 2.664 2.105 5.15 4.128 6.724 6.147 1.57 2.023 2.43 3.954 2.43 7.296 0 2.197-.25 3.538-.571 4.577-12.482-1.822-23.403-4.97-31.469-8.01-1.61-.609-3.02-1.25-4.435-1.858a12.73 12.73 0 002.005-2.29c2.055-2.988 2.339-5.88 3.003-8.01.663-2.128 1.414-3.826 3.863-6.15 1.464-1.397 5.538-3.205 8.724-4.867v.005zm-39.195 21.88c2.024-.015 4.097.612 6.01 1.862 2.518 1.753 7.919 4.504 16.88 7.868a160.453 160.453 0 0035.328 8.866h.146c3.181.394 5.809 2.27 7.438 5.008-1.629.302-3.309.732-4.865 1.432-.23.106-.481.032-.715.138-.183.055-.215.11-.288.146-.142.073-.284.073-.425.142-.129.055-.275.215-.43.288-.394.179-.967.412-1.717.714-1.483.627-3.703 1.433-6.582 2.289-5.758 1.698-14.126 3.433-24.745 3.433-7.886 0-14.624-.893-19.883-2.005a72.85 72.85 0 01-4.719-1.282c-2.984-.952-5.758-2.311-5.721-2.288-4.436-2.989-6.24-6.582-6.724-10.445-.481-3.863.595-7.974 2.288-10.871 2.147-3.451 5.365-5.255 8.724-5.291v-.005zM19.561 68.373c2.179-.165 4.468.376 6.578 1.57.036.018.105.128.142.147.251.137.572.283.86.425.572.307 1.231.609 2.142 1.003 1.826.787 4.349 1.647 7.58 2.577 1.144.32 2.54.677 3.863.998.485.128.93.306 1.433.43.05.018.091-.019.142 0 1.822.467 3.63.874 5.438 1.144v-.142c5.39.873 10.843 1.303 16.303 1.286 11.604 0 20.868-1.95 27.322-3.863a74.608 74.608 0 007.58-2.714c.64-.275 1.002-.522 1.432-.719h.426l.146-.142.856-.43c5.685-3.04 12.514-1.236 15.737 4.435v.142c3.126 5.347 1.323 12.267-4.294 15.448h-.142v.147c-.357.21-5.506 3.02-13.878 5.575-8.362 2.558-20.309 5.007-35.185 5.007-14.875 0-26.799-2.412-35.189-5.007-8.276-2.573-12.423-4.916-14.015-5.722-.074-.036-.092-.105-.142-.142-5.475-3.236-7.173-9.996-4.005-15.59 1.588-2.663 3.968-4.65 6.719-5.437.7-.197 1.419-.376 2.151-.426z"/>
</svg>
