<svg width="500" height="500" viewBox="0 0 500 500" fill="none" xmlns="http://www.w3.org/2000/svg">
<rect width="500" height="500" fill="#5C87E7"/>
<path d="M179 369H126C120 375 100 390 99 406C99 422 109 425 116 425C137 425 160 389 166 377C171.113 373.298 174.998 371.226 179 369Z" fill="white"/>
<path d="M198 369L363 368C383 385 393 397 393 407C393 418 380 426 373 426C361 426 335 395 321 380C303 390 289 395 271 395C236 395 201 376 198 369Z" fill="white"/>
<path d="M86 259V353C86 355 89 355 92 355C97.7791 355.965 105.993 354.448 119 355V318H157V355H189C190 350 194 316 177 308C185 302 189 301 189 283C189 259 179 259 151 259H86ZM118 276H154C157 276 160 277 160 280V299H118V276Z" fill="white"/>
<path d="M300 258H225C210 258 198 265 198 281V334C199 349 205 355 231 355H271C286 355 301 354 301 340V297H269V329H230V285L300 284V258Z" fill="white"/>
<path d="M312 259V355H391C399 355 414 352 414 335V277C414 263 400 259 391 259H312ZM343 285H382V329H343V285Z" fill="white"/>
<path fill-rule="evenodd" clip-rule="evenodd" d="M102 244.01H241.502L216.259 220.538L269.845 163.409C198.987 124.88 140.972 182.895 102 244.01ZM152.043 229.396C154.978 229.396 157.358 227.016 157.358 224.081C157.358 221.146 154.978 218.767 152.043 218.767C149.108 218.767 146.729 221.146 146.729 224.081C146.729 227.016 149.108 229.396 152.043 229.396Z" fill="white"/>
<path d="M269.385 142.16L294.61 104.748C339.652 150.926 354 153 372 241.5L328 241.5C328 241.5 328 207.5 316 184C304.5 159 269.385 142.16 269.385 142.16Z" fill="white"/>
<path d="M269.385 142.16L294.61 104.748C339.652 150.926 354 153 372 241.5L328 241.5C328 241.5 328 207.5 316 184C304.5 159 269.385 142.16 269.385 142.16Z" stroke="#5B657D" stroke-width="3"/>
<path d="M269.385 142.16L294.61 104.748C339.652 150.926 354 153 372 241.5L328 241.5C328 241.5 328 207.5 316 184C304.5 159 269.385 142.16 269.385 142.16Z" stroke="url(#paint0_linear_1509_589)" stroke-width="3"/>
<path d="M305.999 128.313C305.999 128.313 308.029 118.011 293.574 103.441C287.182 97.0857 273.653 98.4966 285.076 115.526C297.556 124.61 305.999 128.313 305.999 128.313Z" fill="white"/>
<path d="M305.999 128.313C305.999 128.313 308.029 118.011 293.574 103.441C287.182 97.0857 273.653 98.4966 285.076 115.526C297.556 124.61 305.999 128.313 305.999 128.313Z" stroke="#5B657D" stroke-width="3"/>
<path d="M305.999 128.313C305.999 128.313 308.029 118.011 293.574 103.441C287.182 97.0857 273.653 98.4966 285.076 115.526C297.556 124.61 305.999 128.313 305.999 128.313Z" stroke="url(#paint1_linear_1509_589)" stroke-width="3"/>
<path d="M296.415 140.522C296.415 140.522 298.526 129.814 283.343 114.639C276.63 108.02 262.448 109.462 274.455 127.19C287.556 136.657 296.415 140.522 296.415 140.522Z" fill="white"/>
<path d="M296.415 140.522C296.415 140.522 298.526 129.814 283.343 114.639C276.63 108.02 262.448 109.462 274.455 127.19C287.556 136.657 296.415 140.522 296.415 140.522Z" stroke="#5B657D" stroke-width="3"/>
<path d="M296.415 140.522C296.415 140.522 298.526 129.814 283.343 114.639C276.63 108.02 262.448 109.462 274.455 127.19C287.556 136.657 296.415 140.522 296.415 140.522Z" stroke="url(#paint2_linear_1509_589)" stroke-width="3"/>
<path d="M291.396 156.2C291.396 156.2 293.507 145.493 277.76 130.207C270.798 123.538 256.184 124.896 268.673 142.718C282.238 152.277 291.396 156.2 291.396 156.2Z" fill="white"/>
<path d="M291.396 156.2C291.396 156.2 293.507 145.493 277.76 130.207C270.798 123.538 256.184 124.896 268.673 142.718C282.238 152.277 291.396 156.2 291.396 156.2Z" stroke="#5B657D" stroke-width="3"/>
<path d="M291.396 156.2C291.396 156.2 293.507 145.493 277.76 130.207C270.798 123.538 256.184 124.896 268.673 142.718C282.238 152.277 291.396 156.2 291.396 156.2Z" stroke="url(#paint3_linear_1509_589)" stroke-width="3"/>
<path d="M343.444 95.7904C330.555 120.498 318.253 132.295 318.253 132.295L331.017 143.526C331.017 143.526 349.003 109.94 343.444 95.7904Z" fill="white"/>
<path d="M343.444 95.7904C330.555 120.498 318.253 132.295 318.253 132.295L331.017 143.526C331.017 143.526 349.003 109.94 343.444 95.7904Z" stroke="#5B657D" stroke-width="3"/>
<path d="M343.444 95.7904C330.555 120.498 318.253 132.295 318.253 132.295L331.017 143.526C331.017 143.526 349.003 109.94 343.444 95.7904Z" stroke="url(#paint4_linear_1509_589)" stroke-width="3"/>
<path d="M335.431 144.699L318.455 129.004L314.679 131.83L332.301 147.24L335.431 144.699Z" fill="white"/>
<defs>
<linearGradient id="paint0_linear_1509_589" x1="299.652" y1="134.926" x2="318.652" y2="169.426" gradientUnits="userSpaceOnUse">
<stop stop-color="white" stop-opacity="0"/>
<stop offset="0.591667" stop-color="white"/>
</linearGradient>
<linearGradient id="paint1_linear_1509_589" x1="291.255" y1="108.429" x2="314.475" y2="153.107" gradientUnits="userSpaceOnUse">
<stop stop-color="white" stop-opacity="0"/>
<stop offset="0.591667" stop-color="white"/>
</linearGradient>
<linearGradient id="paint2_linear_1509_589" x1="280.92" y1="119.821" x2="304.935" y2="166.529" gradientUnits="userSpaceOnUse">
<stop stop-color="white" stop-opacity="0"/>
<stop offset="0.591667" stop-color="white"/>
</linearGradient>
<linearGradient id="paint3_linear_1509_589" x1="275.294" y1="135.38" x2="298.868" y2="183.02" gradientUnits="userSpaceOnUse">
<stop stop-color="white" stop-opacity="0"/>
<stop offset="0.591667" stop-color="white"/>
</linearGradient>
<linearGradient id="paint4_linear_1509_589" x1="325.652" y1="113.926" x2="343.859" y2="143.007" gradientUnits="userSpaceOnUse">
<stop stop-color="white" stop-opacity="0"/>
<stop offset="0.591667" stop-color="white"/>
</linearGradient>
</defs>
</svg>
